<?xml version="1.0" ?><svg viewBox="0 0 512 512" xmlns="http://www.w3.org/2000/svg"><g data-name="/ OUTLINE" id="_OUTLINE"><path d="M420.64941,241.11719l-20.62011-6.87354a19.17409,19.17409,0,0,1,5.62793-12.58691A35.08383,35.08383,0,0,0,416,196.68652V144H376a40.04552,40.04552,0,0,0-40,40v12.68652a35.08383,35.08383,0,0,0,10.34277,24.97022,19.17409,19.17409,0,0,1,5.62793,12.58691l-20.61914,6.87354A39.94752,39.94752,0,0,0,304,279.06445V320a24.03071,24.03071,0,0,0,21.78076,23.89355l-3.15283,12.61133A88.02368,88.02368,0,0,0,320,377.84863V400a24.038,24.038,0,0,0,16,22.62378V448a24,24,0,0,0,0,48h24a23.90124,23.90124,0,0,0,16-6.13074A23.90124,23.90124,0,0,0,392,496h24a24,24,0,0,0,0-48V422.62378A24.038,24.038,0,0,0,432,400V377.84863a88.01674,88.01674,0,0,0-2.62793-21.34326l-3.15283-12.61182A24.03071,24.03071,0,0,0,448,320V279.06445A39.94791,39.94791,0,0,0,420.64941,241.11719ZM376,160h24v16H353.376A24.039,24.039,0,0,1,376,160Zm-24,32h48v4.68652a19.18715,19.18715,0,0,1-5.65723,13.65674A35.04614,35.04614,0,0,0,384.15674,232H367.84326a35.04614,35.04614,0,0,0-10.186-21.65674A19.18715,19.18715,0,0,1,352,196.68652ZM328,328a8.00917,8.00917,0,0,1-8-8V304h16v16A8.00917,8.00917,0,0,1,328,328Zm40,144a8.00917,8.00917,0,0,1-8,8H336a8,8,0,0,1,0-16h32Zm0-24H352V424h16Zm56,24a8.00917,8.00917,0,0,1-8,8H392a8.00917,8.00917,0,0,1-8-8v-8h32A8.00917,8.00917,0,0,1,424,472Zm-40-24V424h16v24Zm32-48a8.00917,8.00917,0,0,1-8,8H384V368H368v40H344a8.00917,8.00917,0,0,1-8-8V377.84863a72.07574,72.07574,0,0,1,2.14941-17.4624L342.24609,344h67.50782l4.09668,16.38672A72.06879,72.06879,0,0,1,416,377.84863Zm16-80a8,8,0,0,1-16,0V304h16Zm0-32H416V272H400v48a23.89427,23.89427,0,0,0,1.376,8H350.624A23.89427,23.89427,0,0,0,352,320V272H336v16H320v-8.93555a23.96914,23.96914,0,0,1,16.41113-22.76855L361.29834,248h29.40332l24.88818,8.2959A23.96953,23.96953,0,0,1,432,279.06445Z"/><path d="M258.98828,129.67627,232,121.96533v-6.65185a19.18715,19.18715,0,0,1,5.65723-13.65674A35.08383,35.08383,0,0,0,248,76.68652V16H208a40.04552,40.04552,0,0,0-40,40V76.68652a35.08383,35.08383,0,0,0,10.34277,24.97022A19.18715,19.18715,0,0,1,184,115.31348v6.65185l-26.98926,7.71143A40.16985,40.16985,0,0,0,128,168.1377V264a24.0275,24.0275,0,0,0,24,24V449.37622A23.99787,23.99787,0,0,0,160,496h32a23.90134,23.90134,0,0,0,16-6.13086A23.90134,23.90134,0,0,0,224,496h32a23.99787,23.99787,0,0,0,8-46.62378V288a24.0275,24.0275,0,0,0,24-24V168.1377A40.17059,40.17059,0,0,0,258.98828,129.67627ZM208,32h24V48H185.37622A24.03824,24.03824,0,0,1,208,32ZM184,64h48V76.68652a19.18715,19.18715,0,0,1-5.65723,13.65674A35.08383,35.08383,0,0,0,216,115.31348v10.90307a9.24044,9.24044,0,0,1-16,0V115.31348a35.08383,35.08383,0,0,0-10.34277-24.97022A19.18715,19.18715,0,0,1,184,76.68652ZM144,264V240h16v24a8,8,0,0,1-16,0Zm56,208a8.00917,8.00917,0,0,1-8,8H160a8,8,0,0,1,0-16h40Zm0-160V448H168V288h80V448H216V312Zm56,168H224a8.00917,8.00917,0,0,1-8-8v-8h40a8,8,0,0,1,0,16Zm16-216a8,8,0,0,1-16,0V240h16Zm0-40H256V184H240v80a23.88238,23.88238,0,0,0,1.37622,8H174.62378A23.88238,23.88238,0,0,0,176,264V184H160v40H144V168.1377A24.10263,24.10263,0,0,1,161.40625,145.061l26.89136-7.683a25.25637,25.25637,0,0,0,39.40478,0l26.89038,7.6825A24.10337,24.10337,0,0,1,272,168.1377Z"/><path d="M92,280a28.03146,28.03146,0,0,0-28,28v20H80V308a12,12,0,0,1,24,0V496h16V308A28.03146,28.03146,0,0,0,92,280Z"/></g></svg>