<svg width="8" height="17" viewBox="0 0 8 17" fill="none" xmlns="http://www.w3.org/2000/svg">
<path d="M0.634596 14.4558C0.242334 14.8445 0.239509 15.4777 0.628287 15.87C1.01706 16.2622 1.65022 16.265 2.04249 15.8763L4.43546 13.5046C5.33676 12.6113 6.07339 11.8812 6.5958 11.2307C7.13904 10.5543 7.53228 9.86772 7.63733 9.04356C7.68339 8.6822 7.68339 8.3165 7.63733 7.95513C7.53228 7.13098 7.13904 6.44439 6.5958 5.76796C6.07339 5.11747 5.33677 4.38742 4.43548 3.49416L2.04249 1.12243C1.65022 0.73365 1.01707 0.736474 0.628287 1.12874C0.239509 1.521 0.242334 2.15416 0.634597 2.54294L2.98522 4.87268C3.93921 5.8182 4.59362 6.46892 5.03642 7.02029C5.46655 7.55588 5.61411 7.89991 5.65338 8.20801C5.67804 8.40147 5.67804 8.59722 5.65338 8.79069C5.61411 9.09879 5.46655 9.44281 5.03642 9.97841C4.59362 10.5298 3.93921 11.1805 2.98522 12.126L0.634596 14.4558Z" fill="#4ade80"/>
</svg>
