<svg width="8" height="17" viewBox="0 0 8 17" fill="none" xmlns="http://www.w3.org/2000/svg">
<path d="M7.3654 2.54424C7.75767 2.15546 7.76049 1.5223 7.37171 1.13004C6.98294 0.737777 6.34978 0.734952 5.95751 1.12373L3.56454 3.49545C2.66324 4.38871 1.92661 5.11877 1.4042 5.76926C0.860962 6.4457 0.467718 7.13228 0.36267 7.95644C0.31661 8.3178 0.31661 8.6835 0.36267 9.04487C0.467718 9.86902 0.860962 10.5556 1.4042 11.232C1.92661 11.8825 2.66323 12.6126 3.56452 13.5058L5.95751 15.8776C6.34978 16.2664 6.98293 16.2635 7.37171 15.8713C7.76049 15.479 7.75767 14.8458 7.3654 14.4571L5.01478 12.1273C4.06079 11.1818 3.40638 10.5311 2.96358 9.97971C2.53345 9.44412 2.38589 9.10009 2.34662 8.79199C2.32196 8.59853 2.32196 8.40278 2.34662 8.20931C2.38589 7.90121 2.53345 7.55719 2.96358 7.02159C3.40638 6.47022 4.06079 5.8195 5.01478 4.87398L7.3654 2.54424Z" fill="#86efac"/>
</svg>
